<?xml version="1.0" encoding="UTF-8"?>
<svg version="1.1" xmlns="http://www.w3.org/2000/svg" width="64" height="64">
<path d="M0 0 C8.34468007 4.97590182 13.53387008 11.86345977 16.109375 21.2578125 C17.10789012 32.35758522 16.45884702 41.9922991 9.359375 51.0703125 C4.04952856 56.76999577 -2.95368522 60.91477621 -10.74609375 61.59375 C-21.80898364 61.82544689 -30.9211155 60.84195345 -39.359375 52.9609375 C-46.75303791 44.73737365 -48.47252567 36.02335615 -48.203125 25.24609375 C-47.72879865 16.86039919 -44.11592977 9.8548755 -37.890625 4.2578125 C-27.15195714 -3.81766573 -12.32399863 -5.91386512 0 0 Z " fill="#3C589E" transform="translate(47.890625,2.7421875)"/>
<path d="M0 0 C1.17046875 0.02707031 2.3409375 0.05414063 3.546875 0.08203125 C4.43890625 0.11683594 5.3309375 0.15164063 6.25 0.1875 C6.25 3.1575 6.25 6.1275 6.25 9.1875 C4.19921875 9.41536458 2.1484375 9.64322917 0.09765625 9.87109375 C-1.76140229 10.00636614 -1.76140229 10.00636614 -2.75 11.1875 C-2.98192865 12.70219448 -3.16215238 14.22504562 -3.3125 15.75 C-3.456875 17.214375 -3.60125 18.67875 -3.75 20.1875 C-0.78 20.1875 2.19 20.1875 5.25 20.1875 C5.25 23.1575 5.25 26.1275 5.25 29.1875 C2.28 29.1875 -0.69 29.1875 -3.75 29.1875 C-3.42 37.4375 -3.09 45.6875 -2.75 54.1875 C-6.38 54.1875 -10.01 54.1875 -13.75 54.1875 C-13.75 45.9375 -13.75 37.6875 -13.75 29.1875 C-16.39 29.1875 -19.03 29.1875 -21.75 29.1875 C-21.75 25.8875 -21.75 22.5875 -21.75 19.1875 C-19.11 19.1875 -16.47 19.1875 -13.75 19.1875 C-13.78480469 18.53523438 -13.81960937 17.88296875 -13.85546875 17.2109375 C-14.0245293 11.75269683 -13.936126 7.85289879 -10.75 3.1875 C-7.32773889 -0.1555421 -4.67743729 -0.14032312 0 0 Z " fill="#F9F9FC" transform="translate(43.75,9.8125)"/>
</svg>
