<?xml version="1.0" encoding="UTF-8"?>
<svg version="1.1" xmlns="http://www.w3.org/2000/svg" width="64" height="64">
<path d="M0 0 C2.17487292 -0.0096747 4.34878709 -0.04072038 6.5234375 -0.07226562 C21.42262505 -0.1876099 21.42262505 -0.1876099 27.4453125 3.24023438 C32.21026566 8.83905434 32.60516056 13.67964038 32.6484375 20.78710938 C32.65413757 21.51714172 32.65983765 22.24717407 32.66571045 22.99932861 C32.6751384 24.54250652 32.68168565 26.08570437 32.68554688 27.62890625 C32.69522247 29.9684648 32.72625295 32.30713286 32.7578125 34.64648438 C32.76434658 36.15168754 32.76959546 37.65689693 32.7734375 39.16210938 C32.7857843 39.85197937 32.7981311 40.54184937 32.81085205 41.25262451 C32.78811451 46.30752979 31.85814313 50.79758989 29.4453125 55.24023438 C22.20835262 61.37591775 13.88477188 60.45629094 4.890625 60.48046875 C2.71575208 60.49014345 0.54183791 60.52118913 -1.6328125 60.55273438 C-16.53200005 60.66807865 -16.53200005 60.66807865 -22.5546875 57.24023438 C-27.31964066 51.64141441 -27.71453556 46.80082837 -27.7578125 39.69335938 C-27.76351257 38.96332703 -27.76921265 38.23329468 -27.77508545 37.48114014 C-27.7845134 35.93796223 -27.79106065 34.39476438 -27.79492188 32.8515625 C-27.80459747 30.51200395 -27.83562795 28.17333589 -27.8671875 25.83398438 C-27.87372158 24.32878121 -27.87897046 22.82357182 -27.8828125 21.31835938 C-27.9013327 20.28355438 -27.9013327 20.28355438 -27.92022705 19.22784424 C-27.89748951 14.17293896 -26.96751813 9.68287886 -24.5546875 5.24023438 C-17.31772762 -0.895449 -8.99414688 0.02417781 0 0 Z " fill="#D04378" transform="translate(29.5546875,1.759765625)"/>
<path d="M0 0 C0.556875 0.268125 1.11375 0.53625 1.6875 0.8125 C2.90004572 4.61537386 2.86657051 8.40885175 2.890625 12.359375 C2.89632507 13.08940735 2.90202515 13.8194397 2.90789795 14.57159424 C2.9173259 16.11477215 2.92387315 17.65796999 2.92773438 19.20117188 C2.93740997 21.54073042 2.96844045 23.87939849 3 26.21875 C3.00653408 27.72395316 3.01178296 29.22916256 3.015625 30.734375 C3.0279718 31.424245 3.0403186 32.11411499 3.05303955 32.82489014 C3.03030201 37.87979541 2.10033063 42.36985551 -0.3125 46.8125 C-7.54945988 52.94818337 -15.87304062 52.02855656 -24.8671875 52.05273438 C-27.04206042 52.06240908 -29.21597459 52.09345475 -31.390625 52.125 C-46.28981255 52.24034427 -46.28981255 52.24034427 -52.3125 48.8125 C-57.66342778 42.52515985 -57.5923823 36.39719038 -57.75 28.5 C-57.79576172 27.57509766 -57.84152344 26.65019531 -57.88867188 25.69726562 C-57.98809615 19.61509341 -57.0421098 16.39337156 -52.80493164 11.96801758 C-51.3125 10.8125 -51.3125 10.8125 -49.3125 10.8125 C-49.29848145 11.81047607 -49.29848145 11.81047607 -49.28417969 12.82861328 C-49.23023981 15.86564019 -49.14663938 18.90116579 -49.0625 21.9375 C-49.04832031 22.98421875 -49.03414062 24.0309375 -49.01953125 25.109375 C-48.82473743 31.2648596 -48.49079902 35.16147372 -44.3125 39.8125 C-39.26493243 43.17754504 -33.36544001 42.18156613 -27.4375 42.1875 C-26.15746094 42.21199219 -24.87742188 42.23648438 -23.55859375 42.26171875 C-21.70814453 42.26751953 -21.70814453 42.26751953 -19.8203125 42.2734375 C-18.12865967 42.28576416 -18.12865967 42.28576416 -16.40283203 42.29833984 C-12.60377772 41.70107976 -11.00982494 40.51338734 -8.3125 37.8125 C-6.17931965 34.67631968 -6.065874 32.09392092 -6.08203125 28.34765625 C-6.08396484 27.30029297 -6.08589844 26.25292969 -6.08789062 25.17382812 C-6.10013672 24.08521484 -6.11238281 22.99660156 -6.125 21.875 C-6.12564453 20.79025391 -6.12628906 19.70550781 -6.12695312 18.58789062 C-6.0911819 12.8169699 -6.0911819 12.8169699 -6.9597168 7.14233398 C-7.07613525 6.37348877 -7.19255371 5.60464355 -7.3125 4.8125 C-3.43867598 -0.27881157 -3.43867598 -0.27881157 0 0 Z " fill="#FCA050" transform="translate(59.3125,10.1875)"/>
<path d="M0 0 C2.17487292 -0.0096747 4.34878709 -0.04072038 6.5234375 -0.07226562 C13.98722421 -0.12983054 20.53588173 0.08057036 27.4453125 3.24023438 C29.5078125 5.92773438 29.5078125 5.92773438 30.4453125 8.24023438 C29.7028125 8.67335938 28.9603125 9.10648438 28.1953125 9.55273438 C25.82697324 11.00603347 23.63607185 12.53631043 21.4453125 14.24023438 C20.75308594 13.59119141 20.06085937 12.94214844 19.34765625 12.2734375 C15.91136977 9.86618701 14.15921247 9.72578195 10.0078125 9.70898438 C8.78320312 9.70382812 7.55859375 9.69867188 6.296875 9.69335938 C4.39035156 9.7165625 4.39035156 9.7165625 2.4453125 9.74023438 C1.17429687 9.72476562 -0.09671875 9.70929687 -1.40625 9.69335938 C-3.24316406 9.70109375 -3.24316406 9.70109375 -5.1171875 9.70898438 C-6.78974609 9.71575195 -6.78974609 9.71575195 -8.49609375 9.72265625 C-12.21822587 10.35251897 -13.86850445 11.63799455 -16.5546875 14.24023438 C-17.0290625 15.04460938 -17.5034375 15.84898438 -17.9921875 16.67773438 C-20.04402151 20.04274216 -22.45900506 21.80320777 -25.5546875 24.24023438 C-26.2146875 24.90023438 -26.8746875 25.56023438 -27.5546875 26.24023438 C-28.14788381 11.82776095 -28.14788381 11.82776095 -24.5546875 5.24023438 C-17.31772762 -0.895449 -8.99414688 0.02417781 0 0 Z " fill="#555ACE" transform="translate(29.5546875,1.759765625)"/>
<path d="M0 0 C1.90072266 -0.04253906 1.90072266 -0.04253906 3.83984375 -0.0859375 C14.23384031 -0.10779659 14.23384031 -0.10779659 17.8828125 2.78125 C22.8253541 8.77429696 22.49102584 13.82773269 22.5 21.375 C22.52449219 22.45136719 22.54898438 23.52773438 22.57421875 24.63671875 C22.59681505 30.74525306 22.4431723 34.78788917 18.125 39.5 C13.08636828 44.18477146 6.75047359 43.01314555 0.25 43 C-1.01714844 43.02835938 -2.28429687 43.05671875 -3.58984375 43.0859375 C-13.98384031 43.10779659 -13.98384031 43.10779659 -17.6328125 40.21875 C-22.5753541 34.22570304 -22.24102584 29.17226731 -22.25 21.625 C-22.27449219 20.54863281 -22.29898437 19.47226562 -22.32421875 18.36328125 C-22.34681505 12.25474694 -22.1931723 8.21211083 -17.875 3.5 C-12.83636828 -1.18477146 -6.50047359 -0.01314555 0 0 Z M-16.875 7.5 C-18.85842115 11.46684231 -18.10373705 16.45093738 -18.125 20.8125 C-18.145625 21.85857422 -18.16625 22.90464844 -18.1875 23.98242188 C-18.19265625 24.99498047 -18.1978125 26.00753906 -18.203125 27.05078125 C-18.2124707 27.97544189 -18.22181641 28.90010254 -18.23144531 29.8527832 C-17.79946775 33.06095632 -16.77457964 34.89684143 -14.875 37.5 C-10.32643839 40.53237441 -5.85019218 39.82893179 -0.5 39.8125 C1.06234375 39.83666992 1.06234375 39.83666992 2.65625 39.86132812 C9.96003535 40.00981596 9.96003535 40.00981596 16.125 36.5 C19.0844168 31.69053548 18.53195784 26.54312122 18.5625 21.0625 C18.59537109 20.02544922 18.62824219 18.98839844 18.66210938 17.91992188 C18.74687883 11.66992076 18.74687883 11.66992076 15.72265625 6.33984375 C10.56075988 2.68382391 5.9967378 3.24402868 -0.1875 3.1875 C-1.23357422 3.15849609 -2.27964844 3.12949219 -3.35742188 3.09960938 C-10.97148948 2.9812388 -10.97148948 2.9812388 -16.875 7.5 Z " fill="#FCF3F6" transform="translate(31.875,10.5)"/>
<path d="M0 0 C3.62416894 1.64734952 6.12851416 3.45402683 8 7 C8.41259969 10.78216379 8.32517815 13.24695586 6.8125 16.75 C3.79022645 20.50178785 1.33375077 21.80599989 -3.4375 22.5 C-8.19197325 21.83270551 -9.67221155 20.40702151 -13 17 C-14.21762731 13.34711807 -14.39075851 10.84245864 -14 7 C-10.35973954 0.90120542 -6.94453392 -0.47081586 0 0 Z " fill="#FCF3F7" transform="translate(35,21)"/>
<path d="M0 0 C0.01401855 0.99797607 0.01401855 0.99797607 0.02832031 2.01611328 C0.08226019 5.05314019 0.16586062 8.08866579 0.25 11.125 C0.26417969 12.17171875 0.27835938 13.2184375 0.29296875 14.296875 C0.48738 20.44027061 0.80026846 24.37420874 5 29 C8.10014929 30.88568694 8.10014929 30.88568694 11 32 C10.09627089 34.78649808 9.2608483 36.72051967 7.25 38.875 C4.02839138 40.48580431 2.39726324 40.10931045 -1 39 C-5.12187924 35.72123243 -6.70835957 33.04192973 -8 28 C-8.37639779 24.51759381 -8.46074912 21.06318765 -8.5 17.5625 C-8.54125 16.64662109 -8.5825 15.73074219 -8.625 14.78710938 C-8.69431577 8.75230478 -7.68186818 5.55129948 -3.49023438 1.15991211 C-2 0 -2 0 0 0 Z " fill="#E04B60" transform="translate(10,21)"/>
<path d="M0 0 C0.4125 0.515625 0.825 1.03125 1.25 1.5625 C2.11625 2.2740625 2.11625 2.2740625 3 3 C4.99427359 2.81446109 4.99427359 2.81446109 7 2 C8.33115034 1.65805312 9.66424243 1.323482 11 1 C11.08736736 4.72901814 11.14051482 8.45777165 11.1875 12.1875 C11.21263672 13.24259766 11.23777344 14.29769531 11.26367188 15.38476562 C11.27333984 16.40634766 11.28300781 17.42792969 11.29296875 18.48046875 C11.3086792 19.41785889 11.32438965 20.35524902 11.34057617 21.32104492 C10.92554293 24.58567559 9.98466601 26.38688907 8 29 C4.91330738 31.17112056 2.29129391 31.23656993 -1.421875 31.1953125 C-2.95908203 31.18564453 -2.95908203 31.18564453 -4.52734375 31.17578125 C-5.59082031 31.15902344 -6.65429688 31.14226563 -7.75 31.125 C-9.36841797 31.11146484 -9.36841797 31.11146484 -11.01953125 31.09765625 C-13.67991278 31.07411305 -16.33984336 31.04122799 -19 31 C-19 30.67 -19 30.34 -19 30 C-17.1128125 29.87625 -17.1128125 29.87625 -15.1875 29.75 C-11.75667002 29.38109685 -11.75667002 29.38109685 -9.25 27.0625 C-8.8375 26.381875 -8.425 25.70125 -8 25 C-6.125 23.9375 -6.125 23.9375 -4 23 C-1.40385455 21.64011429 0.54487064 20.60683914 2.3125 18.25 C3.33189587 14.91379532 3.41307818 12.48165898 3 9 C1.54762928 6.39889008 -0.10258118 4.32433805 -2 2 C-1.34 1.34 -0.68 0.68 0 0 Z " fill="#EB5A5E" transform="translate(39,19)"/>
<path d="M0 0 C0.556875 0.268125 1.11375 0.53625 1.6875 0.8125 C3.44505555 6.61499845 2.95479411 12.80915843 3 18.8125 C3.02900391 20.09640625 3.05800781 21.3803125 3.08789062 22.703125 C3.09626953 23.93546875 3.10464844 25.1678125 3.11328125 26.4375 C3.12786377 27.56414063 3.14244629 28.69078125 3.1574707 29.8515625 C2.58254062 33.47377133 1.5368997 34.5814917 -1.3125 36.8125 C-4.0625 38.0625 -4.0625 38.0625 -6.3125 38.8125 C-6.8075 37.3275 -6.8075 37.3275 -7.3125 35.8125 C-6.9825 35.1525 -6.6525 34.4925 -6.3125 33.8125 C-6.21593351 32.05808737 -6.18174513 30.30003577 -6.1796875 28.54296875 C-6.17839844 27.48916016 -6.17710938 26.43535156 -6.17578125 25.34960938 C-6.17964844 24.24423828 -6.18351562 23.13886719 -6.1875 22 C-6.18363281 20.90623047 -6.17976563 19.81246094 -6.17578125 18.68554688 C-6.17707031 17.62787109 -6.17835937 16.57019531 -6.1796875 15.48046875 C-6.18081543 14.51391357 -6.18194336 13.5473584 -6.18310547 12.55151367 C-6.22699303 9.79874474 -6.22699303 9.79874474 -6.95751953 7.13793945 C-7.07466309 6.37054443 -7.19180664 5.60314941 -7.3125 4.8125 C-3.43867598 -0.27881157 -3.43867598 -0.27881157 0 0 Z " fill="#DF4765" transform="translate(59.3125,10.1875)"/>
<path d="M0 0 C0.66 0.66 1.32 1.32 2 2 C0.68 3.32 -0.64 4.64 -2 6 C7.44934006 7.05248182 7.44934006 7.05248182 16.26953125 4.6640625 C17.31854771 3.57676077 18.3508169 2.4729797 19.36328125 1.3515625 C22.18497703 -0.97852518 25.10423408 -0.68489162 28.625 -0.46484375 C32.12991646 0.22115141 34.36392892 1.63429519 37 4 C37.495 5.485 37.495 5.485 38 7 C37.2575 7.433125 36.515 7.86625 35.75 8.3125 C33.38166074 9.76579909 31.19075935 11.29607606 29 13 C28.30777344 12.35095703 27.61554687 11.70191406 26.90234375 11.03320312 C23.46605727 8.62595264 21.71389997 8.48554757 17.5625 8.46875 C16.33789062 8.46359375 15.11328125 8.4584375 13.8515625 8.453125 C11.94503906 8.47632813 11.94503906 8.47632813 10 8.5 C8.72898437 8.48453125 7.45796875 8.4690625 6.1484375 8.453125 C4.31152344 8.46085938 4.31152344 8.46085938 2.4375 8.46875 C0.76494141 8.47551758 0.76494141 8.47551758 -0.94140625 8.48242188 C-4.66353837 9.11228459 -6.31381695 10.39776017 -9 13 C-9.474375 13.804375 -9.94875 14.60875 -10.4375 15.4375 C-12.48933401 18.80250778 -14.90431756 20.5629734 -18 23 C-18.66 23.66 -19.32 24.32 -20 25 C-20.42199473 21.9405382 -20.66979971 19.95468099 -20 17 C-18.36655622 15.2210483 -16.60634315 14.09474315 -14.578125 12.78515625 C-11.2794772 10.50109254 -8.42823328 7.85903146 -5.5 5.125 C-4.95956055 4.62379639 -4.41912109 4.12259277 -3.86230469 3.60620117 C-2.57191801 2.40730333 -1.28552546 1.20410885 0 0 Z " fill="#894BB0" transform="translate(22,3)"/>
<path d="M0 0 C2.375 1.625 2.375 1.625 4 4 C4.61195145 7.6717087 4.48706506 9.28813568 2.375 12.375 C-0.71186432 14.48706506 -2.3282913 14.61195145 -6 14 C-8.375 12.375 -8.375 12.375 -10 10 C-10.61195145 6.3282913 -10.48706506 4.71186432 -8.375 1.625 C-5.28813568 -0.48706506 -3.6717087 -0.61195145 0 0 Z " fill="#DF3C7A" transform="translate(35,25)"/>
<path d="M0 0 C-2.10095597 4.11056603 -3.58912348 6.19744494 -8.03125 7.6875 C-13.09179331 9.24101894 -17.80752791 9.3464945 -23.0625 9.1875 C-23.92810547 9.17396484 -24.79371094 9.16042969 -25.68554688 9.14648438 C-27.79064174 9.1115933 -29.89540974 9.05780665 -32 9 C-31.01 8.67 -30.02 8.34 -29 8 C-29 7.34 -29 6.68 -29 6 C-28.31373535 5.823479 -27.6274707 5.64695801 -26.92041016 5.46508789 C-23.82133442 4.66655465 -20.72316179 3.86457151 -17.625 3.0625 C-16.54476562 2.78470703 -15.46453125 2.50691406 -14.3515625 2.22070312 C-13.3203125 1.95322266 -12.2890625 1.68574219 -11.2265625 1.41015625 C-10.27346191 1.16402588 -9.32036133 0.91789551 -8.33837891 0.66430664 C-2.91827542 -0.87548263 -2.91827542 -0.87548263 0 0 Z " fill="#FDB250" transform="translate(61,53)"/>
<path d="M0 0 C0.89267578 0.00322266 1.78535156 0.00644531 2.70507812 0.00976562 C4.09823242 0.02233398 4.09823242 0.02233398 5.51953125 0.03515625 C6.45990234 0.03966797 7.40027344 0.04417969 8.36914062 0.04882812 C10.69016837 0.06060999 13.01106769 0.07706067 15.33203125 0.09765625 C15.33203125 0.42765625 15.33203125 0.75765625 15.33203125 1.09765625 C14.03265625 1.43796875 14.03265625 1.43796875 12.70703125 1.78515625 C9.19308473 2.90157799 9.19308473 2.90157799 6.67578125 5.66015625 C2.85335274 8.94544612 -0.70048784 8.67690308 -5.54296875 8.41015625 C-6.71859375 8.37631836 -6.71859375 8.37631836 -7.91796875 8.34179688 C-9.83547135 8.28333643 -11.75197935 8.19366908 -13.66796875 8.09765625 C-12.73835453 6.94541597 -11.79895625 5.80106449 -10.85546875 4.66015625 C-10.33339844 4.02207031 -9.81132812 3.38398437 -9.2734375 2.7265625 C-6.51358445 -0.07358038 -3.72042948 -0.023697 0 0 Z " fill="#7054BF" transform="translate(32.66796875,1.90234375)"/>
<path d="M0 0 C1.04220703 -0.02900391 2.08441406 -0.05800781 3.15820312 -0.08789062 C9.30536521 -0.13869362 13.21545566 0.03304076 17.8125 4.3125 C17.8125 4.9725 17.8125 5.6325 17.8125 6.3125 C16.0625 8 16.0625 8 13.8125 9.3125 C10.80861368 9.04745121 9.97945725 8.47945725 7.8125 6.3125 C5.8325 7.3025 5.8325 7.3025 3.8125 8.3125 C5.18233503 5.15134224 5.8015638 4.3197908 8.8125 2.3125 C6.12251437 2.1491038 3.44259246 2.03103919 0.75 1.9375 C-0.00216797 1.88722656 -0.75433594 1.83695313 -1.52929688 1.78515625 C-5.7674179 1.67507518 -8.6903077 2.16227372 -12.1875 4.65625 C-15.76315878 8.14170548 -16.04040283 11.45804672 -16.15820312 16.3046875 C-16.14724609 17.25601562 -16.13628906 18.20734375 -16.125 19.1875 C-16.14111328 20.16203125 -16.15722656 21.1365625 -16.17382812 22.140625 C-16.20900558 24.53269166 -16.21267629 26.92043411 -16.1875 29.3125 C-16.5175 29.3125 -16.8475 29.3125 -17.1875 29.3125 C-17.33310195 25.58374612 -17.42167043 21.85572566 -17.5 18.125 C-17.54189453 17.06990234 -17.58378906 16.01480469 -17.62695312 14.92773438 C-17.74821766 7.23956315 -17.74821766 7.23956315 -16.08740234 4.49365234 C-14.73046875 3.13671875 -14.73046875 3.13671875 -12.1875 1.3125 C-9.71806675 -1.15693325 -3.31276842 0.03017093 0 0 Z " fill="#C062AB" transform="translate(31.1875,13.6875)"/>
<path d="M0 0 C0.66 0.66 1.32 1.32 2 2 C0.68 3.32 -0.64 4.64 -2 6 C5.92 6.33 13.84 6.66 22 7 C22 7.33 22 7.66 22 8 C21.23856689 8.0093457 20.47713379 8.01869141 19.69262695 8.02832031 C16.2319338 8.08210937 12.77257982 8.16574184 9.3125 8.25 C8.11431641 8.26417969 6.91613281 8.27835938 5.68164062 8.29296875 C4.52470703 8.32519531 3.36777344 8.35742188 2.17578125 8.390625 C1.11270752 8.41157227 0.04963379 8.43251953 -1.0456543 8.45410156 C-4.67816663 9.12531035 -6.35802966 10.4654411 -9 13 C-9.474375 13.804375 -9.94875 14.60875 -10.4375 15.4375 C-12.48933401 18.80250778 -14.90431756 20.5629734 -18 23 C-18.66 23.66 -19.32 24.32 -20 25 C-20.42199473 21.9405382 -20.66979971 19.95468099 -20 17 C-18.36655622 15.2210483 -16.60634315 14.09474315 -14.578125 12.78515625 C-11.2794772 10.50109254 -8.42823328 7.85903146 -5.5 5.125 C-4.95956055 4.62379639 -4.41912109 4.12259277 -3.86230469 3.60620117 C-2.57191801 2.40730333 -1.28552546 1.20410885 0 0 Z " fill="#886DC7" transform="translate(22,3)"/>
<path d="M0 0 C6.6 0 13.2 0 20 0 C16.35842542 2.42771639 12.85586355 3.40671873 8.6875 4.625 C7.56698242 4.96917969 7.56698242 4.96917969 6.42382812 5.3203125 C2.16168032 6.57762739 -1.50672345 7.27145391 -6 7 C-5.34 6.01 -4.68 5.02 -4 4 C-3.34 4 -2.68 4 -2 4 C-1.34 2.68 -0.68 1.36 0 0 Z " fill="#FA842E" transform="translate(21,54)"/>
<path d="M0 0 C2.25 0.25 2.25 0.25 4 1 C0.57242166 5.71292022 -3.56531136 9.27944611 -8 13 C-8.94875 13.804375 -9.8975 14.60875 -10.875 15.4375 C-13 17 -13 17 -15 17 C-15 15.68 -15 14.36 -15 13 C-12.734375 10.78125 -12.734375 10.78125 -9.75 8.5 C-5.59426999 5.29427873 -5.59426999 5.29427873 -1.78125 1.703125 C-1.1934375 1.14109375 -0.605625 0.5790625 0 0 Z " fill="#6856C3" transform="translate(17,3)"/>
<path d="M0 0 C0.33 0 0.66 0 1 0 C0.67 2.97 0.34 5.94 0 9 C-1.5823006 9.33820166 -3.16589375 9.67035939 -4.75 10 C-6.07257812 10.2784375 -6.07257812 10.2784375 -7.421875 10.5625 C-10 11 -10 11 -14 11 C-13.05581482 8.63953705 -12.45659048 7.27721565 -10.25 5.9375 C-9.5075 5.628125 -8.765 5.31875 -8 5 C-3.67015138 2.97296507 -3.67015138 2.97296507 0 0 Z " fill="#FB973C" transform="translate(61,43)"/>
<path d="M0 0 C4.875 2.625 4.875 2.625 6 6 C5.2575 6.433125 4.515 6.86625 3.75 7.3125 C1.38166074 8.76579909 -0.80924065 10.29607606 -3 12 C-4.65 10.35 -6.3 8.7 -8 7 C-5.36 4.69 -2.72 2.38 0 0 Z " fill="#9E47A8" transform="translate(54,4)"/>
<path d="M0 0 C-1 3 -1 3 -2.609375 3.94921875 C-9.42832742 6.30101073 -15.83903965 6.29883451 -23 6 C-18.43903599 2.95935733 -14.26724482 1.72640708 -8.875 0.875 C-7.32425781 0.62363281 -7.32425781 0.62363281 -5.7421875 0.3671875 C-3 0 -3 0 0 0 Z " fill="#FECA63" transform="translate(58,56)"/>
<path d="M0 0 C-6.125 6.125 -6.125 6.125 -11.0625 7.0625 C-11.98160156 7.23910156 -12.90070312 7.41570313 -13.84765625 7.59765625 C-14.55792969 7.73042969 -15.26820312 7.86320312 -16 8 C-12.09922195 -0.00332048 -8.5689029 -0.58870325 0 0 Z " fill="#AD409B" transform="translate(41,15)"/>
<path d="M0 0 C0.90552612 0.30006958 0.90552612 0.30006958 1.8293457 0.60620117 C1.33490967 0.91315918 0.84047363 1.22011719 0.33105469 1.53637695 C-2.71949539 3.71879084 -4.83187802 5.36295385 -5.84204102 9.07006836 C-6.08202477 11.89203373 -6.14076963 14.64942248 -6.1081543 17.48120117 C-6.12426758 18.45573242 -6.14038086 19.43026367 -6.15698242 20.43432617 C-6.19215987 22.82639283 -6.19583058 25.21413528 -6.1706543 27.60620117 C-6.5006543 27.60620117 -6.8306543 27.60620117 -7.1706543 27.60620117 C-7.31625624 23.87744729 -7.40482472 20.14942683 -7.4831543 16.41870117 C-7.52504883 15.36360352 -7.56694336 14.30850586 -7.61010742 13.22143555 C-7.74833258 4.45796024 -7.74833258 4.45796024 -4.90112305 1.30541992 C-2.1706543 -0.39379883 -2.1706543 -0.39379883 0 0 Z " fill="#B961AC" transform="translate(21.170654296875,15.393798828125)"/>
<path d="M0 0 C0.8125 1.6875 0.8125 1.6875 1 4 C-1.125 6.4375 -1.125 6.4375 -4 9 C-4.928125 9.928125 -5.85625 10.85625 -6.8125 11.8125 C-7.534375 12.534375 -8.25625 13.25625 -9 14 C-9 11.36 -9 8.72 -9 6 C-8.1646875 5.9071875 -8.1646875 5.9071875 -7.3125 5.8125 C-4.05012827 4.66626128 -2.31332126 2.50609803 0 0 Z " fill="#944AAB" transform="translate(11,14)"/>
<path d="M0 0 C1.22589844 0.01353516 1.22589844 0.01353516 2.4765625 0.02734375 C3.41628906 0.04474609 3.41628906 0.04474609 4.375 0.0625 C1.375 2.0625 1.375 2.0625 -0.9375 2.375 C-3.76040577 3.09713869 -4.60101654 3.77489016 -6.6875 5.6875 C-7.656875 6.47125 -8.62625 7.255 -9.625 8.0625 C-11.80859375 7.7109375 -11.80859375 7.7109375 -13.625 7.0625 C-12.50220538 6.08080524 -11.37668527 5.10222702 -10.25 4.125 C-9.31027344 3.30708984 -9.31027344 3.30708984 -8.3515625 2.47265625 C-5.45820583 0.1095301 -3.66304466 -0.05232921 0 0 Z " fill="#6158C7" transform="translate(32.625,1.9375)"/>
<path d="M0 0 C0.94875 0.04125 1.8975 0.0825 2.875 0.125 C1.7303125 1.0221875 1.7303125 1.0221875 0.5625 1.9375 C-2.04707348 3.92900177 -2.04707348 3.92900177 -3.625 5.875 C-5.7613653 7.65530442 -7.43486889 7.34311874 -10.125 7.125 C-3.125 0.125 -3.125 0.125 0 0 Z " fill="#7D4FB7" transform="translate(46.125,2.875)"/>
<path d="M0 0 C-3.3 2.97 -6.6 5.94 -10 9 C-10.33 8.34 -10.66 7.68 -11 7 C-5.60240964 -1.86746988 -5.60240964 -1.86746988 0 0 Z " fill="#4A59D4" transform="translate(14,4)"/>
<path d="M0 0 C2.31 0 4.62 0 7 0 C4.38485683 2.12038635 1.80362384 4.13091744 -1 6 C-3.1875 5.625 -3.1875 5.625 -5 5 C-4.01 4.67 -3.02 4.34 -2 4 C-0.79117904 1.99983534 -0.79117904 1.99983534 0 0 Z " fill="#F97726" transform="translate(21,54)"/>
<path d="M0 0 C0.33 0 0.66 0 1 0 C1 1.65 1 3.3 1 5 C-0.28788008 5.53012738 -1.58046678 6.0488329 -2.875 6.5625 C-3.95394531 6.99755859 -3.95394531 6.99755859 -5.0546875 7.44140625 C-7 8 -7 8 -9 7 C-6.62997587 4.38049964 -4.04546021 2.76316117 -1 1 C-0.67 0.67 -0.34 0.34 0 0 Z " fill="#FB7E2A" transform="translate(61,43)"/>
<path d="M0 0 C0.66 0.99 1.32 1.98 2 3 C0.88625 3.6496875 0.88625 3.6496875 -0.25 4.3125 C-2.61833926 5.76579909 -4.80924065 7.29607606 -7 9 C-7 6 -7 6 -5.46875 4.39453125 C-4.49421875 3.61142578 -4.49421875 3.61142578 -3.5 2.8125 C-2.8503125 2.28269531 -2.200625 1.75289062 -1.53125 1.20703125 C-1.0259375 0.80871094 -0.520625 0.41039062 0 0 Z " fill="#AF41A2" transform="translate(58,7)"/>
<path d="M0 0 C1.65 1.65 3.3 3.3 5 5 C4.01 5.66 3.02 6.32 2 7 C0.68 5.35 -0.64 3.7 -2 2 C-1.34 1.34 -0.68 0.68 0 0 Z " fill="#CE3F8E" transform="translate(39,19)"/>
<path d="M0 0 C1.98 0.495 1.98 0.495 4 1 C3.67 2.32 3.34 3.64 3 5 C1.68 4.67 0.36 4.34 -1 4 C-0.67 2.68 -0.34 1.36 0 0 Z " fill="#FBF2F7" transform="translate(42,18)"/>
<path d="M0 0 C-0.33 0.66 -0.66 1.32 -1 2 C-3.64 2 -6.28 2 -9 2 C-4.13793103 -1.24137931 -4.13793103 -1.24137931 0 0 Z " fill="#FDAF4F" transform="translate(61,53)"/>
</svg>
