<?xml version="1.0" encoding="UTF-8"?>
<svg version="1.1" xmlns="http://www.w3.org/2000/svg" width="64" height="64">
<path d="M0 0 C6.64844398 -1.13348347 13.48871868 -2.24288446 20 0 C26.51095161 5.35857079 31.35087652 14.05262955 34 22 C37.28177315 18.8240905 40.37753051 15.515777 43.4375 12.125 C44.21738281 11.26390625 44.99726562 10.4028125 45.80078125 9.515625 C47.13927845 7.98455537 48.44042929 6.41826201 49.66796875 4.796875 C51.03466701 2.99415236 52.24441576 1.42756719 54 0 C57.875 -0.4375 57.875 -0.4375 61 0 C56.56055607 6.2152215 51.65543301 11.93018111 46.58325195 17.63110352 C43.6730431 20.93311247 41.10803366 24.10423462 39 28 C39.72703125 29.01835937 40.4540625 30.03671875 41.203125 31.0859375 C46.8240699 38.98768164 52.36183915 46.93731648 57.75 55 C58.53745605 56.1744165 58.53745605 56.1744165 59.34082031 57.37255859 C60.06156738 58.45657959 60.06156738 58.45657959 60.796875 59.5625 C61.22323242 60.20316406 61.64958984 60.84382813 62.08886719 61.50390625 C63 63 63 63 63 64 C45.44727236 65.79288575 45.44727236 65.79288575 40.13671875 61.90234375 C38.12107284 59.03035128 36.56025101 56.14025202 35 53 C33.69424718 51.12630809 32.36212709 49.270618 31 47.4375 C28 43.25223214 28 43.25223214 28 41 C21.29278478 45.98741644 16.25592384 52.55940904 11.3359375 59.26953125 C9.96877811 61.06438488 8.7710399 62.60181061 7 64 C3.125 64.4375 3.125 64.4375 0 64 C1.50006391 60.55220914 3.50409262 58.17639467 6.0625 55.4375 C12.04958325 48.90877432 17.73143967 42.12415391 23 35 C22.42894531 34.20980469 21.85789062 33.41960938 21.26953125 32.60546875 C16.06212972 25.37308772 10.93744198 18.08457809 5.875 10.75 C5.29468018 9.91621826 4.71436035 9.08243652 4.11645508 8.22338867 C3.58044678 7.44326416 3.04443848 6.66313965 2.4921875 5.859375 C2.01120605 5.16295898 1.53022461 4.46654297 1.03466797 3.74902344 C0 2 0 2 0 0 Z M9 5 C14.39781685 13.79996197 20.3134128 22.18406494 26.29394531 30.59228516 C29.95244662 35.75544199 33.5682146 40.94868283 37.19165039 46.13647461 C38.28533756 47.70108799 39.38234225 49.26338928 40.4831543 50.82299805 C41.47199372 52.24219668 42.44081213 53.67562204 43.38598633 55.12426758 C44.50595246 56.80900113 45.74446107 58.41372346 47 60 C50.71158857 60.58560449 50.71158857 60.58560449 54 60 C49.33552704 52.54746274 44.48484621 45.2604655 39.4375 38.0625 C38.75292725 37.08265137 38.06835449 36.10280273 37.36303711 35.09326172 C35.94842355 33.06912836 34.53281348 31.04569107 33.11621094 29.02294922 C31.03510456 26.05014591 28.95836287 23.07434057 26.8828125 20.09765625 C25.60950737 18.2733451 24.33607567 16.44912229 23.0625 14.625 C22.4655835 13.76914307 21.86866699 12.91328613 21.25366211 12.03149414 C20.70718018 11.2502417 20.16069824 10.46898926 19.59765625 9.6640625 C19.11820557 8.97779785 18.63875488 8.2915332 18.14477539 7.58447266 C17.09233416 6.03931592 17.09233416 6.03931592 16 5 C13.66702567 4.95907063 11.33294775 4.95758277 9 5 Z " fill="#000000" transform="translate(1,0)"/>
</svg>
